<?xml version="1.0" encoding="iso-8859-1"?>
<!-- Generator: Adobe Illustrator 19.0.0, SVG Export Plug-In . SVG Version: 6.00 Build 0)  -->
<svg version="1.1" id="Layer_1" xmlns="http://www.w3.org/2000/svg" xmlns:xlink="http://www.w3.org/1999/xlink" x="0px" y="0px"
	 viewBox="0 0 512 512" style="enable-background:new 0 0 512 512;" xml:space="preserve">
<circle style="fill:#5ED1B3;" cx="256" cy="256" r="256"/>
<path style="fill:#4BC2A2;" d="M510.826,280.437C498.521,410.346,389.133,511.988,256,511.988c-9.241,0-18.359-0.494-27.353-1.445
	l-96.094-96.107l246.895-265.377L510.826,280.437z"/>
<polygon style="fill:#F7F7F7;" points="132.553,97.564 327.953,97.564 379.447,149.058 379.447,414.436 132.553,414.436 "/>
<polygon style="fill:#EBECEC;" points="353.7,123.311 379.447,149.058 379.447,414.436 132.553,414.436 "/>
<polygon style="fill:#FAD55C;" points="132.553,97.564 327.953,97.564 379.447,149.058 379.447,173.829 132.553,173.829 "/>
<polygon style="fill:#EBECEC;" points="327.953,97.564 327.953,149.058 379.447,149.058 "/>
<g>
	<path style="fill:#FFFFFF;" d="M147.872,144.067l8.809-0.877c0.531,2.94,1.594,5.102,3.2,6.486
		c1.618,1.384,3.793,2.076,6.536,2.076c2.891,0,5.078-0.618,6.548-1.853c1.47-1.223,2.199-2.656,2.199-4.312
		c0-1.05-0.309-1.952-0.927-2.706c-0.605-0.729-1.693-1.384-3.237-1.927c-1.05-0.371-3.447-1.013-7.19-1.952
		c-4.818-1.211-8.203-2.681-10.156-4.448c-2.73-2.471-4.102-5.473-4.102-9.031c0-2.273,0.655-4.423,1.927-6.412
		c1.297-1.989,3.15-3.496,5.572-4.534c2.422-1.05,5.35-1.557,8.784-1.557c5.584,0,9.81,1.235,12.626,3.719
		c2.829,2.496,4.312,5.794,4.46,9.958l-9.068,0.309c-0.383-2.31-1.198-3.966-2.459-4.979c-1.26-1.001-3.163-1.52-5.683-1.52
		c-2.607,0-4.645,0.544-6.103,1.631c-0.951,0.692-1.433,1.618-1.433,2.792c0,1.05,0.445,1.964,1.347,2.718
		c1.137,0.964,3.892,1.964,8.278,3.002c4.386,1.038,7.623,2.113,9.711,3.212c2.1,1.124,3.756,2.632,4.942,4.559
		c1.186,1.927,1.779,4.299,1.779,7.116c0,2.57-0.704,4.967-2.137,7.215c-1.421,2.236-3.435,3.892-6.041,4.979
		c-2.607,1.1-5.856,1.631-9.735,1.631c-5.646,0-9.995-1.297-13.022-3.904C150.269,152.851,148.465,149.046,147.872,144.067z
		 M203.357,158.559l-15.999-44.736h9.785l11.354,33.11l10.909-33.11h9.612l-15.9,44.736H203.357z M254.382,142.128v-7.561h19.434
		v17.84c-1.89,1.853-4.621,3.459-8.216,4.868c-3.583,1.396-7.215,2.088-10.897,2.088c-4.682,0-8.747-0.976-12.231-2.94
		c-3.459-1.964-6.078-4.794-7.833-8.451c-1.742-3.645-2.619-7.635-2.619-11.935c0-4.67,0.976-8.809,2.928-12.441
		c1.952-3.632,4.806-6.424,8.574-8.352c2.866-1.495,6.424-2.224,10.699-2.224c5.547,0,9.884,1.161,13.009,3.496
		c3.113,2.335,5.127,5.56,6.029,9.674l-9.007,1.693c-0.618-2.199-1.804-3.941-3.546-5.214c-1.73-1.273-3.892-1.915-6.499-1.915
		c-3.941,0-7.067,1.26-9.39,3.768c-2.323,2.508-3.496,6.227-3.496,11.144c0,5.325,1.186,9.315,3.533,11.972
		c2.372,2.656,5.448,3.978,9.266,3.978c1.89,0,3.781-0.371,5.683-1.112c1.903-0.741,3.521-1.643,4.892-2.706v-5.671H254.382z"/>
	<path style="fill:#666666;" d="M201.071,215.761h38.831v-13.009h32.184v13.009h38.831v-13.009h32.196v32.196h-13.009v29.12h13.009
		v32.184h-13.009v33.345h13.009v32.196h-32.196v-17.235h-38.831v13.009h-32.184v-13.009h-38.831v17.235h-32.196v-32.196h13.009
		v-33.345h-13.009v-32.184h13.009v-29.12h-13.009v-32.196h32.196V215.761z M310.916,264.068h13.009v-29.12h-13.009v-13.009h-38.831
		v13.009h-32.184v-13.009h-38.831v13.009h-13.009v29.12h13.009v32.184h-13.009v33.345h13.009v8.784h38.831v-12.997h32.184v12.997
		h38.831v-8.784h13.009v-33.345h-13.009V264.068z"/>
</g>
<g>
</g>
<g>
</g>
<g>
</g>
<g>
</g>
<g>
</g>
<g>
</g>
<g>
</g>
<g>
</g>
<g>
</g>
<g>
</g>
<g>
</g>
<g>
</g>
<g>
</g>
<g>
</g>
<g>
</g>
</svg>
