<?xml version="1.0" encoding="iso-8859-1"?>
<!-- Generator: Adobe Illustrator 19.0.0, SVG Export Plug-In . SVG Version: 6.00 Build 0)  -->
<svg version="1.1" id="Capa_1" xmlns="http://www.w3.org/2000/svg" xmlns:xlink="http://www.w3.org/1999/xlink" x="0px" y="0px"
	 viewBox="0 0 512 512" style="enable-background:new 0 0 512 512;" xml:space="preserve">
<g>
	<g>
		<path d="M494.142,80.275L426.066,9.301c-3.503-3.651-7.876-6.336-12.637-7.857V92.13h87.733
			C499.784,87.734,497.408,83.681,494.142,80.275z"/>
	</g>
</g>
<g>
	<g>
		<path d="M398.413,122.148c-8.286,0-15.011-6.715-15.011-15.011c0-0.07,0.01-0.14,0.02-0.22c-0.01-0.07-0.02-0.14-0.02-0.22V0
			h-248.52c-16.652,0-30.202,13.55-30.202,30.212v69.276h149.041c28.51,0,51.716,23.194,51.716,51.716v99.269
			c0,28.51-23.207,51.716-51.716,51.716H104.681v179.609c0,16.652,13.55,30.202,30.202,30.202h337.464
			c16.652,0,30.202-13.55,30.202-30.202v-359.65H398.413z"/>
	</g>
</g>
<g>
	<g>
		<path d="M238.287,124.74H48.1c-21.315,0-38.648,17.333-38.648,38.648v74.184c0,21.305,17.333,38.648,38.648,38.648h190.187
			c21.305,0,38.648-17.343,38.648-38.648v-74.184C276.935,142.073,259.593,124.74,238.287,124.74z M102.275,232.666
			c-4.729,3.938-10.933,5.905-18.608,5.905c-6.65,0-12.441-1.37-17.376-4.112c-4.935-2.741-7.401-5.825-7.401-9.254
			c0-1.918,0.701-3.838,2.107-5.757c1.403-1.918,3.032-2.879,4.884-2.879c1.028,0,2.175,0.416,3.443,1.247
			c1.268,0.833,2.433,1.752,3.496,2.763c1.062,1.012,2.553,1.932,4.472,2.763c1.918,0.833,3.941,1.247,6.066,1.247
			c2.673,0,5.003-0.565,6.991-1.696c1.986-1.131,2.981-2.827,2.981-5.089c0-2.262-1.115-4.249-3.341-5.962
			c-2.229-1.712-4.936-3.272-8.122-4.678c-3.188-1.404-6.393-2.981-9.613-4.729c-3.222-1.747-5.946-4.231-8.173-7.453
			c-2.229-3.221-3.341-7.059-3.341-11.514c0-7.266,2.57-12.697,7.711-16.296c5.141-3.599,11.343-5.398,18.608-5.398
			c1.781,0,3.65,0.106,5.604,0.318c1.954,0.212,4.147,0.618,6.58,1.219c2.433,0.601,4.421,1.571,5.963,2.913
			c1.542,1.343,2.314,2.967,2.314,4.872c0,1.812-0.565,3.692-1.696,5.642s-2.69,2.925-4.678,2.925c-0.822,0-2.57-0.65-5.243-1.953
			c-2.673-1.301-5.621-1.953-8.842-1.953c-3.427,0-5.997,0.601-7.711,1.799c-1.714,1.2-2.57,2.657-2.57,4.37
			c0,1.577,0.806,3.017,2.416,4.318c1.61,1.303,3.615,2.416,6.015,3.341c2.398,0.925,5.021,2.126,7.865,3.599
			c2.843,1.475,5.465,3.084,7.865,4.832c2.398,1.748,4.402,4.199,6.014,7.351c1.609,3.153,2.416,6.752,2.416,10.796
			C109.369,223.227,107.005,228.729,102.275,232.666z M171.672,170.099l-19.122,62.714c-0.55,1.714-1.8,3.033-3.753,3.959
			c-1.953,0.926-4.199,1.388-6.734,1.388c-2.537,0-4.78-0.462-6.734-1.388c-1.953-0.926-3.204-2.245-3.753-3.959l-19.226-62.714
			c-0.138-0.547-0.205-0.926-0.205-1.131c0-1.781,1.113-3.323,3.341-4.626c2.227-1.301,4.539-1.953,6.94-1.953
			c2.946,0,4.693,0.995,5.243,2.981l14.394,52.742l14.29-52.742c0.548-1.987,2.296-2.981,5.243-2.981
			c2.399,0,4.712,0.652,6.941,1.953c2.227,1.303,3.341,2.845,3.341,4.626C171.878,169.174,171.809,169.552,171.672,170.099z
			 M227.497,213.898c0,8.363-2.298,14.497-6.889,18.403c-4.592,3.907-10.728,5.86-18.403,5.86c-7.609,0-13.709-1.953-18.3-5.86
			c-4.593-3.907-6.889-10.04-6.889-18.403v-27.246c0-8.361,2.278-14.496,6.837-18.403c4.558-3.907,10.503-5.86,17.838-5.86
			c7.538,0,13.726,1.817,18.557,5.449c4.832,3.634,7.248,8.636,7.248,15.011c0,2.948-0.616,4.953-1.851,6.014
			c-1.233,1.064-3.289,1.593-6.168,1.593c-5.278,0-7.952-1.609-8.02-4.833c0-0.959-0.035-1.764-0.103-2.416
			c-0.069-0.651-0.274-1.456-0.616-2.417c-0.344-0.959-0.823-1.712-1.439-2.262c-0.616-0.547-1.526-1.044-2.725-1.491
			c-1.2-0.444-2.622-0.667-4.267-0.667c-6.168,0-9.253,3.427-9.253,10.28v27.246c0.002,6.855,3.051,10.281,9.153,10.281
			c6.168,0,9.253-3.427,9.253-10.28v-3.496h-6.066c-1.508,0-2.69-0.599-3.547-1.799c-0.858-1.199-1.285-2.656-1.285-4.369
			c0-1.576,0.444-2.998,1.336-4.267c0.891-1.268,2.056-1.902,3.496-1.902h17.272c1.507,0,2.69,0.498,3.548,1.491
			c0.856,0.995,1.285,2.177,1.285,3.547V213.898z"/>
	</g>
</g>
<g>
</g>
<g>
</g>
<g>
</g>
<g>
</g>
<g>
</g>
<g>
</g>
<g>
</g>
<g>
</g>
<g>
</g>
<g>
</g>
<g>
</g>
<g>
</g>
<g>
</g>
<g>
</g>
<g>
</g>
</svg>
