<?xml version="1.0" encoding="iso-8859-1"?>
<!-- Generator: Adobe Illustrator 19.0.0, SVG Export Plug-In . SVG Version: 6.00 Build 0)  -->
<svg version="1.1" id="Capa_1" xmlns="http://www.w3.org/2000/svg" xmlns:xlink="http://www.w3.org/1999/xlink" x="0px" y="0px"
	 viewBox="0 0 437.2 437.2" style="enable-background:new 0 0 437.2 437.2;" xml:space="preserve">
<g>
	<g>
		<g>
			<path d="M98.8,217.6c-10.4,0-18.8,8.4-18.8,18.8v112c0,10,8.4,18.8,18.8,18.8c10.4,0,18.8-8.4,18.8-18.8v-112
				C117.6,226,109.2,217.6,98.8,217.6z"/>
			<path d="M423.2,178.8c-1.2-12-4.4-24-8.4-35.2c-4-11.6-9.2-22.4-15.6-32.8c-6-10.4-13.2-20.4-20.8-29.6c-0.8-0.8-1.6-1.6-2.8-2.4
				c1.2-5.6-0.4-11.2-4.4-15.6C329.2,21.2,274,0,219.2,0s-110,20.8-152,62.8c-4.4,4.4-5.6,10-4.4,15.6c-0.8,0.4-2,1.2-2.8,2.4
				C52,90,45.2,100,39.2,110.4c-6,10.4-11.2,21.6-15.6,32.8c-4,11.6-7.2,23.2-9.6,35.2c-2,12-3.2,24-3.2,36v77.2
				c0,2.8,1.2,5.2,2.8,7.2c0.4,0.4,0.8,0.8,1.2,1.2c2,14.8,8.8,27.6,18.4,37.6c7.6,7.6,17.6,13.6,28.4,16.8c-0.4-2-0.8-4.4-0.8-6.8
				v-112c0-2.4,0.4-4.4,0.8-6.8c-10.8,3.2-20.4,8.8-28.4,16.8c-0.8,0.8-1.6,1.6-2.4,2.4v-33.2c0-10.8,0.8-22,2.8-32.8
				c2-10.8,4.8-21.6,8.4-31.6c3.6-10.4,8.4-20.4,14-29.6c5.6-9.6,11.6-18.4,18.8-26.8c0.4-0.8,1.2-1.6,1.6-2.4
				c5.6,0.8,10.8-0.8,14.8-4.8c35.2-35.2,81.6-53.2,128-53.2c46.4,0,92.8,18,128,53.2c4,4,9.2,5.6,14,4.8c0.4,0.8,0.8,1.6,1.6,2.4
				c7.2,8.4,13.2,17.2,18.8,26.8c5.6,9.6,10,19.6,14,29.6c3.6,10.4,6.4,20.8,8.4,31.6s2.8,21.6,2.8,32.8v33.6
				c-0.8-0.8-1.6-1.6-2.4-2.4c-7.6-7.6-17.6-13.6-28.4-16.8c0.4,2,0.8,4.4,0.8,6.8v112c0,2.4-0.4,4.4-0.8,6.8c2.8-0.8,6-2,8.8-3.2
				V388c0,4.4-0.4,8-1.2,11.2c-0.8,2.8-1.6,4.8-3.2,6.4c-1.2,1.2-2.8,2.4-4.8,3.2c-2,0.8-4.8,1.2-7.6,0.8h-0.4h-108
				c-3.2-6-9.6-10-16.4-10h-47.6c-10.4,0-18.8,8.4-18.8,18.8c0,10.4,8.4,18.8,18.8,18.8h47.2c7.2,0,13.2-4,16.4-10h108h4
				c4,0,7.6-0.8,10.8-2c4.4-1.6,8.4-4.4,11.6-8c3.2-3.6,5.2-7.6,6.8-12.4s2-10.4,2-16.8v-46.8v-1.6c0.4-0.4,1.2-1.2,1.6-1.6
				c10-10,16.8-23.2,18.4-37.6c0.4-0.4,0.8-0.8,1.2-1.2c2-2,2.8-4.4,2.8-7.2v-77.2C426.4,202.8,425.2,190.4,423.2,178.8z"/>
			<path d="M358.4,348V236c0-10.4-8.4-18.8-18.8-18.8c-10.4,0-18.8,8.4-18.8,18.8v112c0,10.4,8.4,18.8,18.8,18.8
				C350,367.2,358.4,358.4,358.4,348z"/>
		</g>
	</g>
</g>
<g>
</g>
<g>
</g>
<g>
</g>
<g>
</g>
<g>
</g>
<g>
</g>
<g>
</g>
<g>
</g>
<g>
</g>
<g>
</g>
<g>
</g>
<g>
</g>
<g>
</g>
<g>
</g>
<g>
</g>
</svg>
